<svg xmlns="http://www.w3.org/2000/svg" width="24" height="24" viewBox="0 0 24 24">
  <g id="Building" transform="translate(-28 -716)">
    <g id="office-building" transform="translate(28 716)">
      <path id="Icon" d="M4,0H14a2,2,0,0,1,2,2V18H2V2A2,2,0,0,1,4,0Z" transform="translate(3 3)" fill="none" stroke="#545f71" stroke-linecap="round" stroke-linejoin="round" stroke-width="2"/>
      <path id="Icon-2" data-name="Icon" d="M18,18H16M2,18H0M6,4H7M6,8H7m4-4h1M11,8h1M7,18V13a1,1,0,0,1,1-1h2a1,1,0,0,1,1,1v5" transform="translate(3 3)" fill="none" stroke="#545f71" stroke-linecap="round" stroke-linejoin="round" stroke-width="2"/>
    </g>
  </g>
</svg>
