<svg xmlns="http://www.w3.org/2000/svg" width="24" height="24" viewBox="0 0 24 24">
  <g id="Check-in" transform="translate(-28 -236)">
    <g id="qrcode" transform="translate(28 236)">
      <path id="Icon" d="M0,1A1,1,0,0,1,1,0H3A1,1,0,0,1,4,1V3A1,1,0,0,1,3,4H1A1,1,0,0,1,0,3Z" transform="translate(3 5)" fill="none" stroke="#545f71" stroke-linecap="round" stroke-width="2"/>
      <path id="Icon-2" data-name="Icon" d="M12,1a1,1,0,0,1,1-1h2a1,1,0,0,1,1,1V3a1,1,0,0,1-1,1H13a1,1,0,0,1-1-1Z" transform="translate(3 5)" fill="none" stroke="#545f71" stroke-linecap="round" stroke-width="2"/>
      <path id="Icon-3" data-name="Icon" d="M0,13a1,1,0,0,1,1-1H3a1,1,0,0,1,1,1v2a1,1,0,0,1-1,1H1a1,1,0,0,1-1-1Z" transform="translate(3 5)" fill="none" stroke="#545f71" stroke-linecap="round" stroke-width="2"/>
      <path id="Icon-4" data-name="Icon" d="M8,0V1m6,11h2M8,16V12h2M8,8V5M8,8h.01M8,8h4.01M12,16h4M0,8H4M16,8h.01" transform="translate(3 5)" fill="none" stroke="#545f71" stroke-linecap="round" stroke-width="2"/>
    </g>
  </g>
</svg>
